<svg width="100" height="100" viewBox="0 0 100 100" fill="none" xmlns="http://www.w3.org/2000/svg">
<g opacity="0.5">
<path d="M46.4856 84.6385C67.5567 84.6385 84.6382 67.557 84.6382 46.4859C84.6382 25.4148 67.5567 8.33325 46.4856 8.33325C25.4145 8.33325 8.33301 25.4148 8.33301 46.4859C8.33301 67.557 25.4145 84.6385 46.4856 84.6385Z" fill="#AFAFAF"/>
</g>
<path fill-rule="evenodd" clip-rule="evenodd" d="M55.4303 36.9828C56.6416 38.1229 56.6994 40.0292 55.5592 41.2405L50.7423 46.3583L55.8601 51.1752C57.0715 52.3153 57.1292 54.2216 55.9891 55.4329C54.849 56.6443 52.9427 56.702 51.7314 55.5619L46.6136 50.745L41.7967 55.8628C40.6565 57.0741 38.7503 57.1319 37.5389 55.9917C36.3276 54.8516 36.2698 52.9454 37.41 51.734L42.2269 46.6162L37.1091 41.7993C35.8977 40.6592 35.84 38.7529 36.9801 37.5416C38.1202 36.3302 40.0265 36.2725 41.2378 37.4126L46.3556 42.2295L51.1725 37.1117C52.3127 35.9004 54.2189 35.8426 55.4303 36.9828Z" fill="#AFAFAF"/>
<path d="M71.25 75.5102L86.5263 90.7864C87.7025 91.9627 89.6097 91.9627 90.7859 90.7864C91.9622 89.6102 91.9622 87.703 90.7859 86.5267L75.5097 71.2505C74.2038 72.7796 72.7791 74.2042 71.25 75.5102Z" fill="#AFAFAF"/>
</svg>
